<svg width="1024" height="753" viewBox="0 0 1024 753" fill="none" xmlns="http://www.w3.org/2000/svg">
<g opacity="0.2" filter="url(#filter0_f_175_198)">
<ellipse cx="512.5" cy="37" rx="670.5" ry="350" fill="#338AF3"/>
</g>
<path d="M33.0349 273C34.5302 273 35.6622 273.63 36.4308 274.891C37.2134 276.138 37.6047 277.953 37.6047 280.336C37.6047 282.719 37.2134 284.541 36.4308 285.802C35.6622 287.063 34.5302 287.693 33.0349 287.693C31.5536 287.693 30.4216 287.063 29.639 285.802C28.8564 284.541 28.4651 282.719 28.4651 280.336C28.4651 277.967 28.8564 276.152 29.639 274.891C30.4216 273.63 31.5536 273 33.0349 273ZM29.9534 280.336C29.9534 282.026 30.1072 283.35 30.4146 284.306L35.0683 275.099C34.5791 274.448 33.9013 274.122 33.0349 274.122C32.0706 274.122 31.316 274.635 30.771 275.66C30.2259 276.672 29.9534 278.23 29.9534 280.336ZM33.0349 286.55C34.0131 286.55 34.7748 286.044 35.3198 285.033C35.8648 284.008 36.1373 282.442 36.1373 280.336C36.1373 278.549 35.9627 277.163 35.6133 276.18L30.9596 285.469C31.4627 286.19 32.1545 286.55 33.0349 286.55Z" fill="url(#paint0_linear_175_198)" fill-opacity="0.6"/>
<path d="M34.2926 310.135H37.3741V311.236H29.3874V310.135H32.9511V298.455L29.5551 300.471L28.9682 299.536L33.1607 296.959H34.2926V310.135Z" fill="url(#paint1_linear_175_198)" fill-opacity="0.6"/>
<path d="M33.0349 320.502C34.5302 320.502 35.6622 321.133 36.4308 322.393C37.2134 323.64 37.6047 325.455 37.6047 327.838C37.6047 330.221 37.2134 332.043 36.4308 333.304C35.6622 334.565 34.5302 335.195 33.0349 335.195C31.5536 335.195 30.4216 334.565 29.639 333.304C28.8564 332.043 28.4651 330.221 28.4651 327.838C28.4651 325.469 28.8564 323.654 29.639 322.393C30.4216 321.133 31.5536 320.502 33.0349 320.502ZM29.9534 327.838C29.9534 329.529 30.1072 330.852 30.4146 331.808L35.0683 322.601C34.5791 321.95 33.9013 321.624 33.0349 321.624C32.0706 321.624 31.316 322.137 30.771 323.162C30.2259 324.174 29.9534 325.732 29.9534 327.838ZM33.0349 334.052C34.0131 334.052 34.7748 333.546 35.3198 332.535C35.8648 331.51 36.1373 329.944 36.1373 327.838C36.1373 326.051 35.9627 324.665 35.6133 323.682L30.9596 332.971C31.4627 333.692 32.1545 334.052 33.0349 334.052Z" fill="url(#paint2_linear_175_198)" fill-opacity="0.6"/>
<path d="M34.2926 357.637H37.3741V358.738H29.3874V357.637H32.9511V345.957L29.5551 347.973L28.9682 347.038L33.1607 344.461H34.2926V357.637Z" fill="url(#paint3_linear_175_198)" fill-opacity="0.6"/>
<path d="M34.2926 381.388H37.3741V382.489H29.3874V381.388H32.9511V369.708L29.5551 371.724L28.9682 370.789L33.1607 368.212H34.2926V381.388Z" fill="url(#paint4_linear_175_198)" fill-opacity="0.6"/>
<path d="M33.0349 391.755C34.5302 391.755 35.6622 392.386 36.4308 393.646C37.2134 394.893 37.6047 396.708 37.6047 399.091C37.6047 401.474 37.2134 403.296 36.4308 404.557C35.6622 405.818 34.5302 406.448 33.0349 406.448C31.5536 406.448 30.4216 405.818 29.639 404.557C28.8564 403.296 28.4651 401.474 28.4651 399.091C28.4651 396.722 28.8564 394.907 29.639 393.646C30.4216 392.386 31.5536 391.755 33.0349 391.755ZM29.9534 399.091C29.9534 400.782 30.1072 402.105 30.4146 403.061L35.0683 393.854C34.5791 393.203 33.9013 392.878 33.0349 392.878C32.0706 392.878 31.316 393.39 30.771 394.415C30.2259 395.427 29.9534 396.985 29.9534 399.091ZM33.0349 405.305C34.0131 405.305 34.7748 404.8 35.3198 403.788C35.8648 402.763 36.1373 401.197 36.1373 399.091C36.1373 397.304 35.9627 395.919 35.6133 394.935L30.9596 404.225C31.4627 404.945 32.1545 405.305 33.0349 405.305Z" fill="url(#paint5_linear_175_198)" fill-opacity="0.6"/>
<path d="M34.2926 428.89H37.3741V429.992H29.3874V428.89H32.9511V417.21L29.5551 419.226L28.9682 418.291L33.1607 415.714H34.2926V428.89Z" fill="url(#paint6_linear_175_198)" fill-opacity="0.6"/>
<path d="M33.0349 439.257C34.5302 439.257 35.6622 439.888 36.4308 441.149C37.2134 442.396 37.6047 444.211 37.6047 446.594C37.6047 448.977 37.2134 450.798 36.4308 452.059C35.6622 453.32 34.5302 453.95 33.0349 453.95C31.5536 453.95 30.4216 453.32 29.639 452.059C28.8564 450.798 28.4651 448.977 28.4651 446.594C28.4651 444.224 28.8564 442.409 29.639 441.149C30.4216 439.888 31.5536 439.257 33.0349 439.257ZM29.9534 446.594C29.9534 448.284 30.1072 449.607 30.4146 450.563L35.0683 441.356C34.5791 440.705 33.9013 440.38 33.0349 440.38C32.0706 440.38 31.316 440.892 30.771 441.918C30.2259 442.929 29.9534 444.488 29.9534 446.594ZM33.0349 452.807C34.0131 452.807 34.7748 452.302 35.3198 451.29C35.8648 450.265 36.1373 448.699 36.1373 446.594C36.1373 444.806 35.9627 443.421 35.6133 442.437L30.9596 451.727C31.4627 452.447 32.1545 452.807 33.0349 452.807Z" fill="url(#paint7_linear_175_198)" fill-opacity="0.6"/>
<path d="M33.0349 463.008C34.5302 463.008 35.6622 463.639 36.4308 464.9C37.2134 466.147 37.6047 467.962 37.6047 470.345C37.6047 472.728 37.2134 474.549 36.4308 475.81C35.6622 477.071 34.5302 477.701 33.0349 477.701C31.5536 477.701 30.4216 477.071 29.639 475.81C28.8564 474.549 28.4651 472.728 28.4651 470.345C28.4651 467.975 28.8564 466.16 29.639 464.9C30.4216 463.639 31.5536 463.008 33.0349 463.008ZM29.9534 470.345C29.9534 472.035 30.1072 473.358 30.4146 474.314L35.0683 465.107C34.5791 464.456 33.9013 464.131 33.0349 464.131C32.0706 464.131 31.316 464.643 30.771 465.669C30.2259 466.68 29.9534 468.239 29.9534 470.345ZM33.0349 476.558C34.0131 476.558 34.7748 476.053 35.3198 475.041C35.8648 474.016 36.1373 472.451 36.1373 470.345C36.1373 468.557 35.9627 467.172 35.6133 466.188L30.9596 475.478C31.4627 476.198 32.1545 476.558 33.0349 476.558Z" fill="url(#paint8_linear_175_198)" fill-opacity="0.6"/>
<path d="M34.2926 500.143H37.3741V501.245H29.3874V500.143H32.9511V488.464L29.5551 490.48L28.9682 489.544L33.1607 486.967H34.2926V500.143Z" fill="url(#paint9_linear_175_198)" fill-opacity="0.6"/>
<path d="M33.0349 510.511C34.5302 510.511 35.6622 511.141 36.4308 512.402C37.2134 513.649 37.6047 515.464 37.6047 517.847C37.6047 520.23 37.2134 522.052 36.4308 523.312C35.6622 524.573 34.5302 525.204 33.0349 525.204C31.5536 525.204 30.4216 524.573 29.639 523.312C28.8564 522.052 28.4651 520.23 28.4651 517.847C28.4651 515.478 28.8564 513.663 29.639 512.402C30.4216 511.141 31.5536 510.511 33.0349 510.511ZM29.9534 517.847C29.9534 519.537 30.1072 520.86 30.4146 521.816L35.0683 512.61C34.5791 511.958 33.9013 511.633 33.0349 511.633C32.0706 511.633 31.316 512.145 30.771 513.171C30.2259 514.182 29.9534 515.741 29.9534 517.847ZM33.0349 524.061C34.0131 524.061 34.7748 523.555 35.3198 522.543C35.8648 521.518 36.1373 519.953 36.1373 517.847C36.1373 516.059 35.9627 514.674 35.6133 513.69L30.9596 522.98C31.4627 523.7 32.1545 524.061 33.0349 524.061Z" fill="url(#paint10_linear_175_198)" fill-opacity="0.6"/>
<path d="M34.2926 547.645H37.3741V548.747H29.3874V547.645H32.9511V535.966L29.5551 537.982L28.9682 537.046L33.1607 534.469H34.2926V547.645Z" fill="url(#paint11_linear_175_198)" fill-opacity="0.6"/>
<path d="M34.2926 571.396H37.3741V572.498H29.3874V571.396H32.9511V559.717L29.5551 561.733L28.9682 560.798L33.1607 558.221H34.2926V571.396Z" fill="url(#paint12_linear_175_198)" fill-opacity="0.6"/>
<path d="M71.9651 320.502C73.4604 320.502 74.5924 321.133 75.361 322.393C76.1436 323.64 76.5349 325.455 76.5349 327.838C76.5349 330.221 76.1436 332.043 75.361 333.304C74.5924 334.565 73.4604 335.195 71.9651 335.195C70.4838 335.195 69.3518 334.565 68.5692 333.304C67.7866 332.043 67.3953 330.221 67.3953 327.838C67.3953 325.469 67.7866 323.654 68.5692 322.393C69.3518 321.133 70.4838 320.502 71.9651 320.502ZM68.8836 327.838C68.8836 329.529 69.0374 330.852 69.3448 331.808L73.9985 322.601C73.5093 321.95 72.8315 321.624 71.9651 321.624C71.0008 321.624 70.2462 322.137 69.7012 323.162C69.1561 324.174 68.8836 325.732 68.8836 327.838ZM71.9651 334.052C72.9433 334.052 73.705 333.546 74.25 332.535C74.795 331.51 75.0675 329.944 75.0675 327.838C75.0675 326.051 74.8928 324.665 74.5435 323.682L69.8898 332.971C70.3929 333.692 71.0847 334.052 71.9651 334.052Z" fill="url(#paint13_linear_175_198)" fill-opacity="0.6"/>
<path d="M73.2228 357.637H76.3043V358.738H68.3176V357.637H71.8812V345.957L68.4853 347.973L67.8984 347.038L72.0909 344.461H73.2228V357.637Z" fill="url(#paint14_linear_175_198)" fill-opacity="0.6"/>
<path d="M71.9651 368.004C73.4604 368.004 74.5924 368.635 75.361 369.895C76.1436 371.142 76.5349 372.957 76.5349 375.34C76.5349 377.723 76.1436 379.545 75.361 380.806C74.5924 382.067 73.4604 382.697 71.9651 382.697C70.4838 382.697 69.3518 382.067 68.5692 380.806C67.7866 379.545 67.3953 377.723 67.3953 375.34C67.3953 372.971 67.7866 371.156 68.5692 369.895C69.3518 368.635 70.4838 368.004 71.9651 368.004ZM68.8836 375.34C68.8836 377.031 69.0374 378.354 69.3448 379.31L73.9985 370.103C73.5093 369.452 72.8315 369.126 71.9651 369.126C71.0008 369.126 70.2462 369.639 69.7012 370.664C69.1561 371.676 68.8836 373.234 68.8836 375.34ZM71.9651 381.554C72.9433 381.554 73.705 381.049 74.25 380.037C74.795 379.012 75.0675 377.446 75.0675 375.34C75.0675 373.553 74.8928 372.168 74.5435 371.184L69.8898 380.474C70.3929 381.194 71.0847 381.554 71.9651 381.554Z" fill="url(#paint15_linear_175_198)" fill-opacity="0.6"/>
<path d="M71.9651 391.755C73.4604 391.755 74.5924 392.386 75.361 393.646C76.1436 394.893 76.5349 396.708 76.5349 399.091C76.5349 401.474 76.1436 403.296 75.361 404.557C74.5924 405.818 73.4604 406.448 71.9651 406.448C70.4838 406.448 69.3518 405.818 68.5692 404.557C67.7866 403.296 67.3953 401.474 67.3953 399.091C67.3953 396.722 67.7866 394.907 68.5692 393.646C69.3518 392.386 70.4838 391.755 71.9651 391.755ZM68.8836 399.091C68.8836 400.782 69.0374 402.105 69.3448 403.061L73.9985 393.854C73.5093 393.203 72.8315 392.878 71.9651 392.878C71.0008 392.878 70.2462 393.39 69.7012 394.415C69.1561 395.427 68.8836 396.985 68.8836 399.091ZM71.9651 405.305C72.9433 405.305 73.705 404.8 74.25 403.788C74.795 402.763 75.0675 401.197 75.0675 399.091C75.0675 397.304 74.8928 395.919 74.5435 394.935L69.8898 404.225C70.3929 404.945 71.0847 405.305 71.9651 405.305Z" fill="url(#paint16_linear_175_198)" fill-opacity="0.6"/>
<path d="M73.2228 428.89H76.3043V429.992H68.3176V428.89H71.8812V417.21L68.4853 419.226L67.8984 418.291L72.0909 415.714H73.2228V428.89Z" fill="url(#paint17_linear_175_198)" fill-opacity="0.6"/>
<path d="M71.9651 439.257C73.4604 439.257 74.5924 439.888 75.361 441.149C76.1436 442.396 76.5349 444.211 76.5349 446.594C76.5349 448.977 76.1436 450.798 75.361 452.059C74.5924 453.32 73.4604 453.95 71.9651 453.95C70.4838 453.95 69.3518 453.32 68.5692 452.059C67.7866 450.798 67.3953 448.977 67.3953 446.594C67.3953 444.224 67.7866 442.409 68.5692 441.149C69.3518 439.888 70.4838 439.257 71.9651 439.257ZM68.8836 446.594C68.8836 448.284 69.0374 449.607 69.3448 450.563L73.9985 441.356C73.5093 440.705 72.8315 440.38 71.9651 440.38C71.0008 440.38 70.2462 440.892 69.7012 441.918C69.1561 442.929 68.8836 444.488 68.8836 446.594ZM71.9651 452.807C72.9433 452.807 73.705 452.302 74.25 451.29C74.795 450.265 75.0675 448.699 75.0675 446.594C75.0675 444.806 74.8928 443.421 74.5435 442.437L69.8898 451.727C70.3929 452.447 71.0847 452.807 71.9651 452.807Z" fill="url(#paint18_linear_175_198)" fill-opacity="0.6"/>
<path d="M73.2228 476.392H76.3043V477.494H68.3176V476.392H71.8812V464.713L68.4853 466.728L67.8984 465.793L72.0909 463.216H73.2228V476.392Z" fill="url(#paint19_linear_175_198)" fill-opacity="0.6"/>
<path d="M71.9651 486.76C73.4604 486.76 74.5924 487.39 75.361 488.651C76.1436 489.898 76.5349 491.713 76.5349 494.096C76.5349 496.479 76.1436 498.301 75.361 499.561C74.5924 500.822 73.4604 501.453 71.9651 501.453C70.4838 501.453 69.3518 500.822 68.5692 499.561C67.7866 498.301 67.3953 496.479 67.3953 494.096C67.3953 491.726 67.7866 489.911 68.5692 488.651C69.3518 487.39 70.4838 486.76 71.9651 486.76ZM68.8836 494.096C68.8836 495.786 69.0374 497.109 69.3448 498.065L73.9985 488.859C73.5093 488.207 72.8315 487.882 71.9651 487.882C71.0008 487.882 70.2462 488.394 69.7012 489.42C69.1561 490.431 68.8836 491.99 68.8836 494.096ZM71.9651 500.31C72.9433 500.31 73.705 499.804 74.25 498.792C74.795 497.767 75.0675 496.202 75.0675 494.096C75.0675 492.308 74.8928 490.923 74.5435 489.939L69.8898 499.229C70.3929 499.949 71.0847 500.31 71.9651 500.31Z" fill="url(#paint20_linear_175_198)" fill-opacity="0.6"/>
<path d="M71.9651 510.511C73.4604 510.511 74.5924 511.141 75.361 512.402C76.1436 513.649 76.5349 515.464 76.5349 517.847C76.5349 520.23 76.1436 522.052 75.361 523.312C74.5924 524.573 73.4604 525.204 71.9651 525.204C70.4838 525.204 69.3518 524.573 68.5692 523.312C67.7866 522.052 67.3953 520.23 67.3953 517.847C67.3953 515.478 67.7866 513.663 68.5692 512.402C69.3518 511.141 70.4838 510.511 71.9651 510.511ZM68.8836 517.847C68.8836 519.537 69.0374 520.86 69.3448 521.816L73.9985 512.61C73.5093 511.958 72.8315 511.633 71.9651 511.633C71.0008 511.633 70.2462 512.145 69.7012 513.171C69.1561 514.182 68.8836 515.741 68.8836 517.847ZM71.9651 524.061C72.9433 524.061 73.705 523.555 74.25 522.543C74.795 521.518 75.0675 519.953 75.0675 517.847C75.0675 516.059 74.8928 514.674 74.5435 513.69L69.8898 522.98C70.3929 523.7 71.0847 524.061 71.9651 524.061Z" fill="url(#paint21_linear_175_198)" fill-opacity="0.6"/>
<path d="M73.2228 547.645H76.3043V548.747H68.3176V547.645H71.8812V535.966L68.4853 537.982L67.8984 537.046L72.0909 534.469H73.2228V547.645Z" fill="url(#paint22_linear_175_198)" fill-opacity="0.6"/>
<path d="M71.9651 558.013C73.4604 558.013 74.5924 558.643 75.361 559.904C76.1436 561.151 76.5349 562.966 76.5349 565.349C76.5349 567.732 76.1436 569.554 75.361 570.815C74.5924 572.075 73.4604 572.706 71.9651 572.706C70.4838 572.706 69.3518 572.075 68.5692 570.815C67.7866 569.554 67.3953 567.732 67.3953 565.349C67.3953 562.98 67.7866 561.165 68.5692 559.904C69.3518 558.643 70.4838 558.013 71.9651 558.013ZM68.8836 565.349C68.8836 567.039 69.0374 568.362 69.3448 569.318L73.9985 560.112C73.5093 559.461 72.8315 559.135 71.9651 559.135C71.0008 559.135 70.2462 559.648 69.7012 560.673C69.1561 561.684 68.8836 563.243 68.8836 565.349ZM71.9651 571.563C72.9433 571.563 73.705 571.057 74.25 570.046C74.795 569.02 75.0675 567.455 75.0675 565.349C75.0675 563.562 74.8928 562.176 74.5435 561.192L69.8898 570.482C70.3929 571.202 71.0847 571.563 71.9651 571.563Z" fill="url(#paint23_linear_175_198)" fill-opacity="0.6"/>
<path d="M73.2228 595.147H76.3043V596.249H68.3176V595.147H71.8812V583.468L68.4853 585.484L67.8984 584.549L72.0909 581.972H73.2228V595.147Z" fill="url(#paint24_linear_175_198)" fill-opacity="0.6"/>
<path d="M73.2228 618.899H76.3043V620H68.3176V618.899H71.8812V607.219L68.4853 609.235L67.8984 608.3L72.0909 605.723H73.2228V618.899Z" fill="url(#paint25_linear_175_198)" fill-opacity="0.6"/>
<path d="M13.5698 344.253C15.0651 344.253 16.1971 344.884 16.9657 346.144C17.7483 347.391 18.1396 349.206 18.1396 351.589C18.1396 353.972 17.7483 355.794 16.9657 357.055C16.1971 358.316 15.0651 358.946 13.5698 358.946C12.0885 358.946 10.9565 358.316 10.1739 357.055C9.3913 355.794 9 353.972 9 351.589C9 349.22 9.3913 347.405 10.1739 346.144C10.9565 344.884 12.0885 344.253 13.5698 344.253ZM10.4883 351.589C10.4883 353.28 10.6421 354.603 10.9495 355.559L15.6032 346.352C15.114 345.701 14.4363 345.375 13.5698 345.375C12.6055 345.375 11.8509 345.888 11.3059 346.913C10.7608 347.925 10.4883 349.483 10.4883 351.589ZM13.5698 357.803C14.5481 357.803 15.3097 357.297 15.8547 356.286C16.3997 355.261 16.6722 353.695 16.6722 351.589C16.6722 349.802 16.4976 348.417 16.1482 347.433L11.4945 356.722C11.9976 357.443 12.6894 357.803 13.5698 357.803Z" fill="url(#paint26_linear_175_198)" fill-opacity="0.6"/>
<path d="M13.5698 368.004C15.0651 368.004 16.1971 368.635 16.9657 369.895C17.7483 371.142 18.1396 372.957 18.1396 375.34C18.1396 377.723 17.7483 379.545 16.9657 380.806C16.1971 382.067 15.0651 382.697 13.5698 382.697C12.0885 382.697 10.9565 382.067 10.1739 380.806C9.3913 379.545 9 377.723 9 375.34C9 372.971 9.3913 371.156 10.1739 369.895C10.9565 368.635 12.0885 368.004 13.5698 368.004ZM10.4883 375.34C10.4883 377.031 10.6421 378.354 10.9495 379.31L15.6032 370.103C15.114 369.452 14.4363 369.126 13.5698 369.126C12.6055 369.126 11.8509 369.639 11.3059 370.664C10.7608 371.676 10.4883 373.234 10.4883 375.34ZM13.5698 381.554C14.5481 381.554 15.3097 381.049 15.8547 380.037C16.3997 379.012 16.6722 377.446 16.6722 375.34C16.6722 373.553 16.4976 372.168 16.1482 371.184L11.4945 380.474C11.9976 381.194 12.6894 381.554 13.5698 381.554Z" fill="url(#paint27_linear_175_198)" fill-opacity="0.6"/>
<path d="M14.8276 405.139H17.909V406.24H9.92235V405.139H13.486V393.459L10.09 395.475L9.5031 394.54L13.6956 391.963H14.8276V405.139Z" fill="url(#paint28_linear_175_198)" fill-opacity="0.6"/>
<path d="M13.5698 415.506C15.0651 415.506 16.1971 416.137 16.9657 417.398C17.7483 418.644 18.1396 420.459 18.1396 422.842C18.1396 425.225 17.7483 427.047 16.9657 428.308C16.1971 429.569 15.0651 430.199 13.5698 430.199C12.0885 430.199 10.9565 429.569 10.1739 428.308C9.3913 427.047 9 425.225 9 422.842C9 420.473 9.3913 418.658 10.1739 417.398C10.9565 416.137 12.0885 415.506 13.5698 415.506ZM10.4883 422.842C10.4883 424.533 10.6421 425.856 10.9495 426.812L15.6032 417.605C15.114 416.954 14.4363 416.629 13.5698 416.629C12.6055 416.629 11.8509 417.141 11.3059 418.166C10.7608 419.178 10.4883 420.737 10.4883 422.842ZM13.5698 429.056C14.5481 429.056 15.3097 428.551 15.8547 427.539C16.3997 426.514 16.6722 424.948 16.6722 422.842C16.6722 421.055 16.4976 419.67 16.1482 418.686L11.4945 427.976C11.9976 428.696 12.6894 429.056 13.5698 429.056Z" fill="url(#paint29_linear_175_198)" fill-opacity="0.6"/>
<path d="M14.8276 452.641H17.909V453.743H9.92235V452.641H13.486V440.962L10.09 442.977L9.5031 442.042L13.6956 439.465H14.8276V452.641Z" fill="url(#paint30_linear_175_198)" fill-opacity="0.6"/>
<path d="M14.8276 476.392H17.909V477.494H9.92235V476.392H13.486V464.713L10.09 466.728L9.5031 465.793L13.6956 463.216H14.8276V476.392Z" fill="url(#paint31_linear_175_198)" fill-opacity="0.6"/>
<path d="M53.7577 310.135H56.8392V311.236H48.8525V310.135H52.4162V298.455L49.0202 300.471L48.4333 299.536L52.6258 296.959H53.7577V310.135Z" fill="url(#paint32_linear_175_198)" fill-opacity="0.6"/>
<path d="M52.5 320.502C53.9953 320.502 55.1273 321.133 55.8959 322.393C56.6785 323.64 57.0698 325.455 57.0698 327.838C57.0698 330.221 56.6785 332.043 55.8959 333.304C55.1273 334.565 53.9953 335.195 52.5 335.195C51.0187 335.195 49.8867 334.565 49.1041 333.304C48.3215 332.043 47.9302 330.221 47.9302 327.838C47.9302 325.469 48.3215 323.654 49.1041 322.393C49.8867 321.133 51.0187 320.502 52.5 320.502ZM49.4185 327.838C49.4185 329.529 49.5723 330.852 49.8797 331.808L54.5334 322.601C54.0442 321.95 53.3664 321.624 52.5 321.624C51.5357 321.624 50.7811 322.137 50.2361 323.162C49.691 324.174 49.4185 325.732 49.4185 327.838ZM52.5 334.052C53.4782 334.052 54.2399 333.546 54.7849 332.535C55.3299 331.51 55.6024 329.944 55.6024 327.838C55.6024 326.051 55.4277 324.665 55.0784 323.682L50.4247 332.971C50.9278 333.692 51.6196 334.052 52.5 334.052Z" fill="url(#paint33_linear_175_198)" fill-opacity="0.6"/>
<path d="M53.7577 357.637H56.8392V358.738H48.8525V357.637H52.4162V345.957L49.0202 347.973L48.4333 347.038L52.6258 344.461H53.7577V357.637Z" fill="url(#paint34_linear_175_198)" fill-opacity="0.6"/>
<path d="M53.7577 381.388H56.8392V382.489H48.8525V381.388H52.4162V369.708L49.0202 371.724L48.4333 370.789L52.6258 368.212H53.7577V381.388Z" fill="url(#paint35_linear_175_198)" fill-opacity="0.6"/>
<path d="M52.5 391.755C53.9953 391.755 55.1273 392.386 55.8959 393.646C56.6785 394.893 57.0698 396.708 57.0698 399.091C57.0698 401.474 56.6785 403.296 55.8959 404.557C55.1273 405.818 53.9953 406.448 52.5 406.448C51.0187 406.448 49.8867 405.818 49.1041 404.557C48.3215 403.296 47.9302 401.474 47.9302 399.091C47.9302 396.722 48.3215 394.907 49.1041 393.646C49.8867 392.386 51.0187 391.755 52.5 391.755ZM49.4185 399.091C49.4185 400.782 49.5723 402.105 49.8797 403.061L54.5334 393.854C54.0442 393.203 53.3664 392.878 52.5 392.878C51.5357 392.878 50.7811 393.39 50.2361 394.415C49.691 395.427 49.4185 396.985 49.4185 399.091ZM52.5 405.305C53.4782 405.305 54.2399 404.8 54.7849 403.788C55.3299 402.763 55.6024 401.197 55.6024 399.091C55.6024 397.304 55.4277 395.919 55.0784 394.935L50.4247 404.225C50.9278 404.945 51.6196 405.305 52.5 405.305Z" fill="url(#paint36_linear_175_198)" fill-opacity="0.6"/>
<path d="M53.7577 428.89H56.8392V429.992H48.8525V428.89H52.4162V417.21L49.0202 419.226L48.4333 418.291L52.6258 415.714H53.7577V428.89Z" fill="url(#paint37_linear_175_198)" fill-opacity="0.6"/>
<path d="M53.7577 452.641H56.8392V453.743H48.8525V452.641H52.4162V440.962L49.0202 442.977L48.4333 442.042L52.6258 439.465H53.7577V452.641Z" fill="url(#paint38_linear_175_198)" fill-opacity="0.6"/>
<path d="M52.5 463.008C53.9953 463.008 55.1273 463.639 55.8959 464.9C56.6785 466.147 57.0698 467.962 57.0698 470.345C57.0698 472.728 56.6785 474.549 55.8959 475.81C55.1273 477.071 53.9953 477.701 52.5 477.701C51.0187 477.701 49.8867 477.071 49.1041 475.81C48.3215 474.549 47.9302 472.728 47.9302 470.345C47.9302 467.975 48.3215 466.16 49.1041 464.9C49.8867 463.639 51.0187 463.008 52.5 463.008ZM49.4185 470.345C49.4185 472.035 49.5723 473.358 49.8797 474.314L54.5334 465.107C54.0442 464.456 53.3664 464.131 52.5 464.131C51.5357 464.131 50.7811 464.643 50.2361 465.669C49.691 466.68 49.4185 468.239 49.4185 470.345ZM52.5 476.558C53.4782 476.558 54.2399 476.053 54.7849 475.041C55.3299 474.016 55.6024 472.451 55.6024 470.345C55.6024 468.557 55.4277 467.172 55.0784 466.188L50.4247 475.478C50.9278 476.198 51.6196 476.558 52.5 476.558Z" fill="url(#paint39_linear_175_198)" fill-opacity="0.6"/>
<path d="M53.7577 500.143H56.8392V501.245H48.8525V500.143H52.4162V488.464L49.0202 490.48L48.4333 489.544L52.6258 486.967H53.7577V500.143Z" fill="url(#paint40_linear_175_198)" fill-opacity="0.6"/>
<path d="M52.5 510.511C53.9953 510.511 55.1273 511.141 55.8959 512.402C56.6785 513.649 57.0698 515.464 57.0698 517.847C57.0698 520.23 56.6785 522.052 55.8959 523.312C55.1273 524.573 53.9953 525.204 52.5 525.204C51.0187 525.204 49.8867 524.573 49.1041 523.312C48.3215 522.052 47.9302 520.23 47.9302 517.847C47.9302 515.478 48.3215 513.663 49.1041 512.402C49.8867 511.141 51.0187 510.511 52.5 510.511ZM49.4185 517.847C49.4185 519.537 49.5723 520.86 49.8797 521.816L54.5334 512.61C54.0442 511.958 53.3664 511.633 52.5 511.633C51.5357 511.633 50.7811 512.145 50.2361 513.171C49.691 514.182 49.4185 515.741 49.4185 517.847ZM52.5 524.061C53.4782 524.061 54.2399 523.555 54.7849 522.543C55.3299 521.518 55.6024 519.953 55.6024 517.847C55.6024 516.059 55.4277 514.674 55.0784 513.69L50.4247 522.98C50.9278 523.7 51.6196 524.061 52.5 524.061Z" fill="url(#paint41_linear_175_198)" fill-opacity="0.6"/>
<path d="M91.4302 296.751C92.9255 296.751 94.0575 297.381 94.8261 298.642C95.6087 299.889 96 301.704 96 304.087C96 306.47 95.6087 308.292 94.8261 309.553C94.0575 310.814 92.9255 311.444 91.4302 311.444C89.9489 311.444 88.8169 310.814 88.0343 309.553C87.2517 308.292 86.8604 306.47 86.8604 304.087C86.8604 301.718 87.2517 299.903 88.0343 298.642C88.8169 297.381 89.9489 296.751 91.4302 296.751ZM88.3487 304.087C88.3487 305.777 88.5024 307.101 88.8099 308.057L93.4636 298.85C92.9744 298.199 92.2966 297.873 91.4302 297.873C90.4659 297.873 89.7113 298.386 89.1663 299.411C88.6212 300.423 88.3487 301.981 88.3487 304.087ZM91.4302 310.301C92.4084 310.301 93.1701 309.795 93.7151 308.784C94.2601 307.759 94.5326 306.193 94.5326 304.087C94.5326 302.3 94.3579 300.914 94.0086 299.931L89.3549 309.22C89.858 309.941 90.5498 310.301 91.4302 310.301Z" fill="url(#paint42_linear_175_198)" fill-opacity="0.6"/>
<path d="M92.6879 333.886H95.7694V334.987H87.7827V333.886H91.3463V322.206L87.9504 324.222L87.3635 323.287L91.556 320.71H92.6879V333.886Z" fill="url(#paint43_linear_175_198)" fill-opacity="0.6"/>
<path d="M92.6879 357.637H95.7694V358.738H87.7827V357.637H91.3463V345.957L87.9504 347.973L87.3635 347.038L91.556 344.461H92.6879V357.637Z" fill="url(#paint44_linear_175_198)" fill-opacity="0.6"/>
<path d="M91.4302 368.004C92.9255 368.004 94.0575 368.635 94.8261 369.895C95.6087 371.142 96 372.957 96 375.34C96 377.723 95.6087 379.545 94.8261 380.806C94.0575 382.067 92.9255 382.697 91.4302 382.697C89.9489 382.697 88.8169 382.067 88.0343 380.806C87.2517 379.545 86.8604 377.723 86.8604 375.34C86.8604 372.971 87.2517 371.156 88.0343 369.895C88.8169 368.635 89.9489 368.004 91.4302 368.004ZM88.3487 375.34C88.3487 377.031 88.5024 378.354 88.8099 379.31L93.4636 370.103C92.9744 369.452 92.2966 369.126 91.4302 369.126C90.4659 369.126 89.7113 369.639 89.1663 370.664C88.6212 371.676 88.3487 373.234 88.3487 375.34ZM91.4302 381.554C92.4084 381.554 93.1701 381.049 93.7151 380.037C94.2601 379.012 94.5326 377.446 94.5326 375.34C94.5326 373.553 94.3579 372.168 94.0086 371.184L89.3549 380.474C89.858 381.194 90.5498 381.554 91.4302 381.554Z" fill="url(#paint45_linear_175_198)" fill-opacity="0.6"/>
<path d="M91.4302 391.755C92.9255 391.755 94.0575 392.386 94.8261 393.646C95.6087 394.893 96 396.708 96 399.091C96 401.474 95.6087 403.296 94.8261 404.557C94.0575 405.818 92.9255 406.448 91.4302 406.448C89.9489 406.448 88.8169 405.818 88.0343 404.557C87.2517 403.296 86.8604 401.474 86.8604 399.091C86.8604 396.722 87.2517 394.907 88.0343 393.646C88.8169 392.386 89.9489 391.755 91.4302 391.755ZM88.3487 399.091C88.3487 400.782 88.5024 402.105 88.8099 403.061L93.4636 393.854C92.9744 393.203 92.2966 392.878 91.4302 392.878C90.4659 392.878 89.7113 393.39 89.1663 394.415C88.6212 395.427 88.3487 396.985 88.3487 399.091ZM91.4302 405.305C92.4084 405.305 93.1701 404.8 93.7151 403.788C94.2601 402.763 94.5326 401.197 94.5326 399.091C94.5326 397.304 94.3579 395.919 94.0086 394.935L89.3549 404.225C89.858 404.945 90.5498 405.305 91.4302 405.305Z" fill="url(#paint46_linear_175_198)" fill-opacity="0.6"/>
<g opacity="0.6">
<path d="M919.93 -27C921.356 -27 922.436 -26.395 923.17 -25.1851C923.916 -23.9885 924.29 -22.2468 924.29 -19.9599C924.29 -17.673 923.916 -15.9246 923.17 -14.7147C922.436 -13.5048 921.356 -12.8998 919.93 -12.8998C918.517 -12.8998 917.437 -13.5048 916.69 -14.7147C915.943 -15.9246 915.57 -17.673 915.57 -19.9599C915.57 -22.2335 915.943 -23.9752 916.69 -25.1851C917.437 -26.395 918.517 -27 919.93 -27ZM916.99 -19.9599C916.99 -18.3378 917.137 -17.068 917.43 -16.1506L921.87 -24.9857C921.403 -25.6106 920.756 -25.923 919.93 -25.923C919.01 -25.923 918.29 -25.4311 917.77 -24.4472C917.25 -23.4766 916.99 -21.9808 916.99 -19.9599ZM919.93 -13.9967C920.863 -13.9967 921.59 -14.482 922.11 -15.4526C922.63 -16.4365 922.89 -17.9389 922.89 -19.9599C922.89 -21.675 922.723 -23.0046 922.39 -23.9486L917.95 -15.0338C918.43 -14.3424 919.09 -13.9967 919.93 -13.9967Z" fill="url(#paint47_linear_175_198)"/>
<path d="M921.13 8.63655H924.07V9.69356H916.45V8.63655H919.85V-2.57181L916.61 -0.637274L916.05 -1.53474L920.05 -4.00776H921.13V8.63655Z" fill="url(#paint48_linear_175_198)"/>
<path d="M919.93 18.5856C921.356 18.5856 922.436 19.1906 923.17 20.4005C923.916 21.5971 924.29 23.3389 924.29 25.6257C924.29 27.9126 923.916 29.661 923.17 30.8709C922.436 32.0808 921.356 32.6858 919.93 32.6858C918.517 32.6858 917.437 32.0808 916.69 30.8709C915.943 29.661 915.57 27.9126 915.57 25.6257C915.57 23.3521 915.943 21.6104 916.69 20.4005C917.437 19.1906 918.517 18.5856 919.93 18.5856ZM916.99 25.6257C916.99 27.2478 917.137 28.5176 917.43 29.435L921.87 20.5999C921.403 19.975 920.756 19.6626 919.93 19.6626C919.01 19.6626 918.29 20.1545 917.77 21.1384C917.25 22.109 916.99 23.6048 916.99 25.6257ZM919.93 31.5889C920.863 31.5889 921.59 31.1036 922.11 30.133C922.63 29.1491 922.89 27.6467 922.89 25.6257C922.89 23.9106 922.723 22.581 922.39 21.637L917.95 30.5518C918.43 31.2432 919.09 31.5889 919.93 31.5889Z" fill="url(#paint49_linear_175_198)"/>
<path d="M921.13 54.2221H924.07V55.2792H916.45V54.2221H919.85V43.0138L916.61 44.9483L916.05 44.0509L920.05 41.5778H921.13V54.2221Z" fill="url(#paint50_linear_175_198)"/>
<path d="M921.13 77.015H924.07V78.072H916.45V77.015H919.85V65.8066L916.61 67.7411L916.05 66.8437L920.05 64.3706H921.13V77.015Z" fill="url(#paint51_linear_175_198)"/>
<path d="M919.93 86.964C921.356 86.964 922.436 87.569 923.17 88.7789C923.916 89.9755 924.29 91.7173 924.29 94.0041C924.29 96.291 923.916 98.0394 923.17 99.2493C922.436 100.459 921.356 101.064 919.93 101.064C918.517 101.064 917.437 100.459 916.69 99.2493C915.943 98.0394 915.57 96.291 915.57 94.0041C915.57 91.7306 915.943 89.9888 916.69 88.7789C917.437 87.569 918.517 86.964 919.93 86.964ZM916.99 94.0041C916.99 95.6262 917.137 96.896 917.43 97.8134L921.87 88.9783C921.403 88.3534 920.756 88.041 919.93 88.041C919.01 88.041 918.29 88.5329 917.77 89.5168C917.25 90.4874 916.99 91.9832 916.99 94.0041ZM919.93 99.9673C920.863 99.9673 921.59 99.482 922.11 98.5114C922.63 97.5275 922.89 96.0251 922.89 94.0041C922.89 92.289 922.723 90.9594 922.39 90.0154L917.95 98.9302C918.43 99.6216 919.09 99.9673 919.93 99.9673Z" fill="url(#paint52_linear_175_198)"/>
<path d="M921.13 122.601H924.07V123.658H916.45V122.601H919.85V111.392L916.61 113.327L916.05 112.429L920.05 109.956H921.13V122.601Z" fill="url(#paint53_linear_175_198)"/>
<path d="M919.93 132.55C921.356 132.55 922.436 133.155 923.17 134.365C923.916 135.561 924.29 137.303 924.29 139.59C924.29 141.877 923.916 143.625 923.17 144.835C922.436 146.045 921.356 146.65 919.93 146.65C918.517 146.65 917.437 146.045 916.69 144.835C915.943 143.625 915.57 141.877 915.57 139.59C915.57 137.316 915.943 135.574 916.69 134.365C917.437 133.155 918.517 132.55 919.93 132.55ZM916.99 139.59C916.99 141.212 917.137 142.482 917.43 143.399L921.87 134.564C921.403 133.939 920.756 133.627 919.93 133.627C919.01 133.627 918.29 134.119 917.77 135.102C917.25 136.073 916.99 137.569 916.99 139.59ZM919.93 145.553C920.863 145.553 921.59 145.068 922.11 144.097C922.63 143.113 922.89 141.611 922.89 139.59C922.89 137.875 922.723 136.545 922.39 135.601L917.95 144.516C918.43 145.207 919.09 145.553 919.93 145.553Z" fill="url(#paint54_linear_175_198)"/>
<path d="M919.93 155.342C921.356 155.342 922.436 155.947 923.17 157.157C923.916 158.354 924.29 160.096 924.29 162.383C924.29 164.669 923.916 166.418 923.17 167.628C922.436 168.838 921.356 169.443 919.93 169.443C918.517 169.443 917.437 168.838 916.69 167.628C915.943 166.418 915.57 164.669 915.57 162.383C915.57 160.109 915.943 158.367 916.69 157.157C917.437 155.947 918.517 155.342 919.93 155.342ZM916.99 162.383C916.99 164.005 917.137 165.274 917.43 166.192L921.87 157.357C921.403 156.732 920.756 156.419 919.93 156.419C919.01 156.419 918.29 156.911 917.77 157.895C917.25 158.866 916.99 160.362 916.99 162.383ZM919.93 168.346C920.863 168.346 921.59 167.86 922.11 166.89C922.63 165.906 922.89 164.404 922.89 162.383C922.89 160.667 922.723 159.338 922.39 158.394L917.95 167.309C918.43 168 919.09 168.346 919.93 168.346Z" fill="url(#paint55_linear_175_198)"/>
<path d="M921.13 190.979H924.07V192.036H916.45V190.979H919.85V179.771L916.61 181.705L916.05 180.808L920.05 178.335H921.13V190.979Z" fill="url(#paint56_linear_175_198)"/>
<path d="M919.93 200.928C921.356 200.928 922.436 201.533 923.17 202.743C923.916 203.94 924.29 205.681 924.29 207.968C924.29 210.255 923.916 212.003 923.17 213.213C922.436 214.423 921.356 215.028 919.93 215.028C918.517 215.028 917.437 214.423 916.69 213.213C915.943 212.003 915.57 210.255 915.57 207.968C915.57 205.695 915.943 203.953 916.69 202.743C917.437 201.533 918.517 200.928 919.93 200.928ZM916.99 207.968C916.99 209.59 917.137 210.86 917.43 211.777L921.87 202.942C921.403 202.317 920.756 202.005 919.93 202.005C919.01 202.005 918.29 202.497 917.77 203.481C917.25 204.451 916.99 205.947 916.99 207.968ZM919.93 213.931C920.863 213.931 921.59 213.446 922.11 212.475C922.63 211.492 922.89 209.989 922.89 207.968C922.89 206.253 922.723 204.923 922.39 203.979L917.95 212.894C918.43 213.586 919.09 213.931 919.93 213.931Z" fill="url(#paint57_linear_175_198)"/>
<path d="M921.13 236.565H924.07V237.622H916.45V236.565H919.85V225.356L916.61 227.291L916.05 226.393L920.05 223.92H921.13V236.565Z" fill="url(#paint58_linear_175_198)"/>
<path d="M921.13 259.357H924.07V260.414H916.45V259.357H919.85V248.149L916.61 250.084L916.05 249.186L920.05 246.713H921.13V259.357Z" fill="url(#paint59_linear_175_198)"/>
<path d="M957.07 18.5856C958.497 18.5856 959.577 19.1906 960.31 20.4005C961.057 21.5971 961.43 23.3389 961.43 25.6257C961.43 27.9126 961.057 29.661 960.31 30.8709C959.577 32.0808 958.497 32.6858 957.07 32.6858C955.657 32.6858 954.577 32.0808 953.83 30.8709C953.084 29.661 952.71 27.9126 952.71 25.6257C952.71 23.3521 953.084 21.6104 953.83 20.4005C954.577 19.1906 955.657 18.5856 957.07 18.5856ZM954.13 25.6257C954.13 27.2478 954.277 28.5176 954.57 29.435L959.01 20.5999C958.543 19.975 957.897 19.6626 957.07 19.6626C956.15 19.6626 955.43 20.1545 954.91 21.1384C954.39 22.109 954.13 23.6048 954.13 25.6257ZM957.07 31.5889C958.003 31.5889 958.73 31.1036 959.25 30.133C959.77 29.1491 960.03 27.6467 960.03 25.6257C960.03 23.9106 959.863 22.581 959.53 21.637L955.09 30.5518C955.57 31.2432 956.23 31.5889 957.07 31.5889Z" fill="url(#paint60_linear_175_198)"/>
<path d="M958.27 54.2221H961.21V55.2792H953.59V54.2221H956.99V43.0138L953.75 44.9483L953.19 44.0509L957.19 41.5778H958.27V54.2221Z" fill="url(#paint61_linear_175_198)"/>
<path d="M957.07 64.1712C958.497 64.1712 959.577 64.7762 960.31 65.9861C961.057 67.1827 961.43 68.9245 961.43 71.2113C961.43 73.4982 961.057 75.2466 960.31 76.4565C959.577 77.6665 958.497 78.2714 957.07 78.2714C955.657 78.2714 954.577 77.6665 953.83 76.4565C953.084 75.2466 952.71 73.4982 952.71 71.2113C952.71 68.9378 953.084 67.196 953.83 65.9861C954.577 64.7762 955.657 64.1712 957.07 64.1712ZM954.13 71.2113C954.13 72.8334 954.277 74.1032 954.57 75.0206L959.01 66.1855C958.543 65.5606 957.897 65.2482 957.07 65.2482C956.15 65.2482 955.43 65.7401 954.91 66.724C954.39 67.6946 954.13 69.1904 954.13 71.2113ZM957.07 77.1745C958.003 77.1745 958.73 76.6892 959.25 75.7186C959.77 74.7347 960.03 73.2323 960.03 71.2113C960.03 69.4962 959.863 68.1666 959.53 67.2226L955.09 76.1374C955.57 76.8288 956.23 77.1745 957.07 77.1745Z" fill="url(#paint62_linear_175_198)"/>
<path d="M957.07 86.964C958.497 86.964 959.577 87.569 960.31 88.7789C961.057 89.9755 961.43 91.7173 961.43 94.0041C961.43 96.291 961.057 98.0394 960.31 99.2493C959.577 100.459 958.497 101.064 957.07 101.064C955.657 101.064 954.577 100.459 953.83 99.2493C953.084 98.0394 952.71 96.291 952.71 94.0041C952.71 91.7306 953.084 89.9888 953.83 88.7789C954.577 87.569 955.657 86.964 957.07 86.964ZM954.13 94.0041C954.13 95.6262 954.277 96.896 954.57 97.8134L959.01 88.9783C958.543 88.3534 957.897 88.041 957.07 88.041C956.15 88.041 955.43 88.5329 954.91 89.5168C954.39 90.4874 954.13 91.9832 954.13 94.0041ZM957.07 99.9673C958.003 99.9673 958.73 99.482 959.25 98.5114C959.77 97.5275 960.03 96.0251 960.03 94.0041C960.03 92.289 959.863 90.9594 959.53 90.0154L955.09 98.9302C955.57 99.6216 956.23 99.9673 957.07 99.9673Z" fill="url(#paint63_linear_175_198)"/>
<path d="M958.27 122.601H961.21V123.658H953.59V122.601H956.99V111.392L953.75 113.327L953.19 112.429L957.19 109.956H958.27V122.601Z" fill="url(#paint64_linear_175_198)"/>
<path d="M957.07 132.55C958.497 132.55 959.577 133.155 960.31 134.365C961.057 135.561 961.43 137.303 961.43 139.59C961.43 141.877 961.057 143.625 960.31 144.835C959.577 146.045 958.497 146.65 957.07 146.65C955.657 146.65 954.577 146.045 953.83 144.835C953.084 143.625 952.71 141.877 952.71 139.59C952.71 137.316 953.084 135.574 953.83 134.365C954.577 133.155 955.657 132.55 957.07 132.55ZM954.13 139.59C954.13 141.212 954.277 142.482 954.57 143.399L959.01 134.564C958.543 133.939 957.897 133.627 957.07 133.627C956.15 133.627 955.43 134.119 954.91 135.102C954.39 136.073 954.13 137.569 954.13 139.59ZM957.07 145.553C958.003 145.553 958.73 145.068 959.25 144.097C959.77 143.113 960.03 141.611 960.03 139.59C960.03 137.875 959.863 136.545 959.53 135.601L955.09 144.516C955.57 145.207 956.23 145.553 957.07 145.553Z" fill="url(#paint65_linear_175_198)"/>
<path d="M958.27 168.186H961.21V169.243H953.59V168.186H956.99V156.978L953.75 158.912L953.19 158.015L957.19 155.542H958.27V168.186Z" fill="url(#paint66_linear_175_198)"/>
<path d="M957.07 178.135C958.497 178.135 959.577 178.74 960.31 179.95C961.057 181.147 961.43 182.888 961.43 185.175C961.43 187.462 961.057 189.211 960.31 190.421C959.577 191.63 958.497 192.235 957.07 192.235C955.657 192.235 954.577 191.63 953.83 190.421C953.084 189.211 952.71 187.462 952.71 185.175C952.71 182.902 953.084 181.16 953.83 179.95C954.577 178.74 955.657 178.135 957.07 178.135ZM954.13 185.175C954.13 186.797 954.277 188.067 954.57 188.985L959.01 180.15C958.543 179.525 957.897 179.212 957.07 179.212C956.15 179.212 955.43 179.704 954.91 180.688C954.39 181.659 954.13 183.154 954.13 185.175ZM957.07 191.139C958.003 191.139 958.73 190.653 959.25 189.683C959.77 188.699 960.03 187.196 960.03 185.175C960.03 183.46 959.863 182.131 959.53 181.187L955.09 190.101C955.57 190.793 956.23 191.139 957.07 191.139Z" fill="url(#paint67_linear_175_198)"/>
<path d="M957.07 200.928C958.497 200.928 959.577 201.533 960.31 202.743C961.057 203.94 961.43 205.681 961.43 207.968C961.43 210.255 961.057 212.003 960.31 213.213C959.577 214.423 958.497 215.028 957.07 215.028C955.657 215.028 954.577 214.423 953.83 213.213C953.084 212.003 952.71 210.255 952.71 207.968C952.71 205.695 953.084 203.953 953.83 202.743C954.577 201.533 955.657 200.928 957.07 200.928ZM954.13 207.968C954.13 209.59 954.277 210.86 954.57 211.777L959.01 202.942C958.543 202.317 957.897 202.005 957.07 202.005C956.15 202.005 955.43 202.497 954.91 203.481C954.39 204.451 954.13 205.947 954.13 207.968ZM957.07 213.931C958.003 213.931 958.73 213.446 959.25 212.475C959.77 211.492 960.03 209.989 960.03 207.968C960.03 206.253 959.863 204.923 959.53 203.979L955.09 212.894C955.57 213.586 956.23 213.931 957.07 213.931Z" fill="url(#paint68_linear_175_198)"/>
<path d="M958.27 236.565H961.21V237.622H953.59V236.565H956.99V225.356L953.75 227.291L953.19 226.393L957.19 223.92H958.27V236.565Z" fill="url(#paint69_linear_175_198)"/>
<path d="M957.07 246.514C958.497 246.514 959.577 247.119 960.31 248.329C961.057 249.525 961.43 251.267 961.43 253.554C961.43 255.841 961.057 257.589 960.31 258.799C959.577 260.009 958.497 260.614 957.07 260.614C955.657 260.614 954.577 260.009 953.83 258.799C953.084 257.589 952.71 255.841 952.71 253.554C952.71 251.28 953.084 249.538 953.83 248.329C954.577 247.119 955.657 246.514 957.07 246.514ZM954.13 253.554C954.13 255.176 954.277 256.446 954.57 257.363L959.01 248.528C958.543 247.903 957.897 247.591 957.07 247.591C956.15 247.591 955.43 248.083 954.91 249.066C954.39 250.037 954.13 251.533 954.13 253.554ZM957.07 259.517C958.003 259.517 958.73 259.032 959.25 258.061C959.77 257.077 960.03 255.575 960.03 253.554C960.03 251.839 959.863 250.509 959.53 249.565L955.09 258.48C955.57 259.171 956.23 259.517 957.07 259.517Z" fill="url(#paint70_linear_175_198)"/>
<path d="M958.27 282.15H961.21V283.207H953.59V282.15H956.99V270.942L953.75 272.876L953.19 271.979L957.19 269.506H958.27V282.15Z" fill="url(#paint71_linear_175_198)"/>
<path d="M958.27 304.943H961.21V306H953.59V304.943H956.99V293.735L953.75 295.669L953.19 294.772L957.19 292.299H958.27V304.943Z" fill="url(#paint72_linear_175_198)"/>
<path d="M901.36 41.3784C902.786 41.3784 903.866 41.9834 904.599 43.1933C905.346 44.3899 905.719 46.1317 905.719 48.4185C905.719 50.7054 905.346 52.4538 904.599 53.6637C903.866 54.8736 902.786 55.4786 901.36 55.4786C899.946 55.4786 898.867 54.8736 898.12 53.6637C897.373 52.4538 897 50.7054 897 48.4185C897 46.145 897.373 44.4032 898.12 43.1933C898.867 41.9834 899.946 41.3784 901.36 41.3784ZM898.42 48.4185C898.42 50.0406 898.567 51.3104 898.86 52.2278L903.3 43.3927C902.833 42.7678 902.186 42.4554 901.36 42.4554C900.44 42.4554 899.72 42.9473 899.2 43.9312C898.68 44.9018 898.42 46.3976 898.42 48.4185ZM901.36 54.3817C902.293 54.3817 903.02 53.8964 903.54 52.9258C904.06 51.9419 904.319 50.4395 904.319 48.4185C904.319 46.7034 904.153 45.3738 903.82 44.4298L899.38 53.3446C899.86 54.036 900.52 54.3817 901.36 54.3817Z" fill="url(#paint73_linear_175_198)"/>
<path d="M901.36 64.1712C902.786 64.1712 903.866 64.7762 904.599 65.9861C905.346 67.1827 905.719 68.9245 905.719 71.2113C905.719 73.4982 905.346 75.2466 904.599 76.4565C903.866 77.6665 902.786 78.2714 901.36 78.2714C899.946 78.2714 898.867 77.6665 898.12 76.4565C897.373 75.2466 897 73.4982 897 71.2113C897 68.9378 897.373 67.196 898.12 65.9861C898.867 64.7762 899.946 64.1712 901.36 64.1712ZM898.42 71.2113C898.42 72.8334 898.567 74.1032 898.86 75.0206L903.3 66.1855C902.833 65.5606 902.186 65.2482 901.36 65.2482C900.44 65.2482 899.72 65.7401 899.2 66.724C898.68 67.6946 898.42 69.1904 898.42 71.2113ZM901.36 77.1745C902.293 77.1745 903.02 76.6892 903.54 75.7186C904.06 74.7347 904.319 73.2323 904.319 71.2113C904.319 69.4962 904.153 68.1666 903.82 67.2226L899.38 76.1374C899.86 76.8288 900.52 77.1745 901.36 77.1745Z" fill="url(#paint74_linear_175_198)"/>
<path d="M902.56 99.8078H905.499V100.865H897.88V99.8078H901.28V88.5994L898.04 90.5339L897.48 89.6365L901.48 87.1635H902.56V99.8078Z" fill="url(#paint75_linear_175_198)"/>
<path d="M901.36 109.757C902.786 109.757 903.866 110.362 904.599 111.572C905.346 112.768 905.719 114.51 905.719 116.797C905.719 119.084 905.346 120.832 904.599 122.042C903.866 123.252 902.786 123.857 901.36 123.857C899.946 123.857 898.867 123.252 898.12 122.042C897.373 120.832 897 119.084 897 116.797C897 114.523 897.373 112.782 898.12 111.572C898.867 110.362 899.946 109.757 901.36 109.757ZM898.42 116.797C898.42 118.419 898.567 119.689 898.86 120.606L903.3 111.771C902.833 111.146 902.186 110.834 901.36 110.834C900.44 110.834 899.72 111.326 899.2 112.31C898.68 113.28 898.42 114.776 898.42 116.797ZM901.36 122.76C902.293 122.76 903.02 122.275 903.54 121.304C904.06 120.32 904.319 118.818 904.319 116.797C904.319 115.082 904.153 113.752 903.82 112.808L899.38 121.723C899.86 122.414 900.52 122.76 901.36 122.76Z" fill="url(#paint76_linear_175_198)"/>
<path d="M902.56 145.393H905.499V146.45H897.88V145.393H901.28V134.185L898.04 136.12L897.48 135.222L901.48 132.749H902.56V145.393Z" fill="url(#paint77_linear_175_198)"/>
<path d="M902.56 168.186H905.499V169.243H897.88V168.186H901.28V156.978L898.04 158.912L897.48 158.015L901.48 155.542H902.56V168.186Z" fill="url(#paint78_linear_175_198)"/>
<path d="M939.7 8.63655H942.64V9.69356H935.02V8.63655H938.42V-2.57181L935.18 -0.637274L934.62 -1.53474L938.62 -4.00776H939.7V8.63655Z" fill="url(#paint79_linear_175_198)"/>
<path d="M938.5 18.5856C939.927 18.5856 941.006 19.1906 941.74 20.4005C942.486 21.5971 942.86 23.3389 942.86 25.6257C942.86 27.9126 942.486 29.661 941.74 30.8709C941.006 32.0808 939.927 32.6858 938.5 32.6858C937.087 32.6858 936.007 32.0808 935.26 30.8709C934.514 29.661 934.14 27.9126 934.14 25.6257C934.14 23.3521 934.514 21.6104 935.26 20.4005C936.007 19.1906 937.087 18.5856 938.5 18.5856ZM935.56 25.6257C935.56 27.2478 935.707 28.5176 936 29.435L940.44 20.5999C939.973 19.975 939.327 19.6626 938.5 19.6626C937.58 19.6626 936.86 20.1545 936.34 21.1384C935.82 22.109 935.56 23.6048 935.56 25.6257ZM938.5 31.5889C939.433 31.5889 940.16 31.1036 940.68 30.133C941.2 29.1491 941.46 27.6467 941.46 25.6257C941.46 23.9106 941.293 22.581 940.96 21.637L936.52 30.5518C937 31.2432 937.66 31.5889 938.5 31.5889Z" fill="url(#paint80_linear_175_198)"/>
<path d="M939.7 54.2221H942.64V55.2792H935.02V54.2221H938.42V43.0138L935.18 44.9483L934.62 44.0509L938.62 41.5778H939.7V54.2221Z" fill="url(#paint81_linear_175_198)"/>
<path d="M939.7 77.015H942.64V78.072H935.02V77.015H938.42V65.8066L935.18 67.7411L934.62 66.8437L938.62 64.3706H939.7V77.015Z" fill="url(#paint82_linear_175_198)"/>
<path d="M938.5 86.964C939.927 86.964 941.006 87.569 941.74 88.7789C942.486 89.9755 942.86 91.7173 942.86 94.0041C942.86 96.291 942.486 98.0394 941.74 99.2493C941.006 100.459 939.927 101.064 938.5 101.064C937.087 101.064 936.007 100.459 935.26 99.2493C934.514 98.0394 934.14 96.291 934.14 94.0041C934.14 91.7306 934.514 89.9888 935.26 88.7789C936.007 87.569 937.087 86.964 938.5 86.964ZM935.56 94.0041C935.56 95.6262 935.707 96.896 936 97.8134L940.44 88.9783C939.973 88.3534 939.327 88.041 938.5 88.041C937.58 88.041 936.86 88.5329 936.34 89.5168C935.82 90.4874 935.56 91.9832 935.56 94.0041ZM938.5 99.9673C939.433 99.9673 940.16 99.482 940.68 98.5114C941.2 97.5275 941.46 96.0251 941.46 94.0041C941.46 92.289 941.293 90.9594 940.96 90.0154L936.52 98.9302C937 99.6216 937.66 99.9673 938.5 99.9673Z" fill="url(#paint83_linear_175_198)"/>
<path d="M939.7 122.601H942.64V123.658H935.02V122.601H938.42V111.392L935.18 113.327L934.62 112.429L938.62 109.956H939.7V122.601Z" fill="url(#paint84_linear_175_198)"/>
<path d="M939.7 145.393H942.64V146.45H935.02V145.393H938.42V134.185L935.18 136.12L934.62 135.222L938.62 132.749H939.7V145.393Z" fill="url(#paint85_linear_175_198)"/>
<path d="M938.5 155.342C939.927 155.342 941.006 155.947 941.74 157.157C942.486 158.354 942.86 160.096 942.86 162.383C942.86 164.669 942.486 166.418 941.74 167.628C941.006 168.838 939.927 169.443 938.5 169.443C937.087 169.443 936.007 168.838 935.26 167.628C934.514 166.418 934.14 164.669 934.14 162.383C934.14 160.109 934.514 158.367 935.26 157.157C936.007 155.947 937.087 155.342 938.5 155.342ZM935.56 162.383C935.56 164.005 935.707 165.274 936 166.192L940.44 157.357C939.973 156.732 939.327 156.419 938.5 156.419C937.58 156.419 936.86 156.911 936.34 157.895C935.82 158.866 935.56 160.362 935.56 162.383ZM938.5 168.346C939.433 168.346 940.16 167.86 940.68 166.89C941.2 165.906 941.46 164.404 941.46 162.383C941.46 160.667 941.293 159.338 940.96 158.394L936.52 167.309C937 168 937.66 168.346 938.5 168.346Z" fill="url(#paint86_linear_175_198)"/>
<path d="M939.7 190.979H942.64V192.036H935.02V190.979H938.42V179.771L935.18 181.705L934.62 180.808L938.62 178.335H939.7V190.979Z" fill="url(#paint87_linear_175_198)"/>
<path d="M938.5 200.928C939.927 200.928 941.006 201.533 941.74 202.743C942.486 203.94 942.86 205.681 942.86 207.968C942.86 210.255 942.486 212.003 941.74 213.213C941.006 214.423 939.927 215.028 938.5 215.028C937.087 215.028 936.007 214.423 935.26 213.213C934.514 212.003 934.14 210.255 934.14 207.968C934.14 205.695 934.514 203.953 935.26 202.743C936.007 201.533 937.087 200.928 938.5 200.928ZM935.56 207.968C935.56 209.59 935.707 210.86 936 211.777L940.44 202.942C939.973 202.317 939.327 202.005 938.5 202.005C937.58 202.005 936.86 202.497 936.34 203.481C935.82 204.451 935.56 205.947 935.56 207.968ZM938.5 213.931C939.433 213.931 940.16 213.446 940.68 212.475C941.2 211.492 941.46 209.989 941.46 207.968C941.46 206.253 941.293 204.923 940.96 203.979L936.52 212.894C937 213.586 937.66 213.931 938.5 213.931Z" fill="url(#paint88_linear_175_198)"/>
<path d="M975.64 -4.2072C977.067 -4.2072 978.147 -3.60224 978.88 -2.39232C979.627 -1.1957 980 0.546049 980 2.83293C980 5.1198 979.627 6.86821 978.88 8.07812C978.147 9.28804 977.067 9.893 975.64 9.893C974.227 9.893 973.147 9.28804 972.401 8.07812C971.654 6.86821 971.281 5.1198 971.281 2.83293C971.281 0.559345 971.654 -1.1824 972.401 -2.39232C973.147 -3.60224 974.227 -4.2072 975.64 -4.2072ZM972.701 2.83293C972.701 4.45502 972.847 5.72477 973.14 6.64218L977.58 -2.19288C977.114 -2.81779 976.467 -3.13024 975.64 -3.13024C974.72 -3.13024 974 -2.63829 973.48 -1.6544C972.96 -0.683811 972.701 0.811966 972.701 2.83293ZM975.64 8.7961C976.574 8.7961 977.3 8.3108 977.82 7.34021C978.34 6.35632 978.6 4.85389 978.6 2.83293C978.6 1.11777 978.433 -0.211809 978.1 -1.15581L973.66 7.75902C974.14 8.45041 974.8 8.7961 975.64 8.7961Z" fill="url(#paint89_linear_175_198)"/>
<path d="M976.84 31.4293H979.78V32.4864H972.161V31.4293H975.56V20.221L972.321 22.1555L971.761 21.2581L975.76 18.785H976.84V31.4293Z" fill="url(#paint90_linear_175_198)"/>
<path d="M976.84 54.2221H979.78V55.2792H972.161V54.2221H975.56V43.0138L972.321 44.9483L971.761 44.0509L975.76 41.5778H976.84V54.2221Z" fill="url(#paint91_linear_175_198)"/>
<path d="M975.64 64.1712C977.067 64.1712 978.147 64.7762 978.88 65.9861C979.627 67.1827 980 68.9245 980 71.2113C980 73.4982 979.627 75.2466 978.88 76.4565C978.147 77.6665 977.067 78.2714 975.64 78.2714C974.227 78.2714 973.147 77.6665 972.401 76.4565C971.654 75.2466 971.281 73.4982 971.281 71.2113C971.281 68.9378 971.654 67.196 972.401 65.9861C973.147 64.7762 974.227 64.1712 975.64 64.1712ZM972.701 71.2113C972.701 72.8334 972.847 74.1032 973.14 75.0206L977.58 66.1855C977.114 65.5606 976.467 65.2482 975.64 65.2482C974.72 65.2482 974 65.7401 973.48 66.724C972.96 67.6946 972.701 69.1904 972.701 71.2113ZM975.64 77.1745C976.574 77.1745 977.3 76.6892 977.82 75.7186C978.34 74.7347 978.6 73.2323 978.6 71.2113C978.6 69.4962 978.433 68.1666 978.1 67.2226L973.66 76.1374C974.14 76.8288 974.8 77.1745 975.64 77.1745Z" fill="url(#paint92_linear_175_198)"/>
<path d="M975.64 86.964C977.067 86.964 978.147 87.569 978.88 88.7789C979.627 89.9755 980 91.7173 980 94.0041C980 96.291 979.627 98.0394 978.88 99.2493C978.147 100.459 977.067 101.064 975.64 101.064C974.227 101.064 973.147 100.459 972.401 99.2493C971.654 98.0394 971.281 96.291 971.281 94.0041C971.281 91.7306 971.654 89.9888 972.401 88.7789C973.147 87.569 974.227 86.964 975.64 86.964ZM972.701 94.0041C972.701 95.6262 972.847 96.896 973.14 97.8134L977.58 88.9783C977.114 88.3534 976.467 88.041 975.64 88.041C974.72 88.041 974 88.5329 973.48 89.5168C972.96 90.4874 972.701 91.9832 972.701 94.0041ZM975.64 99.9673C976.574 99.9673 977.3 99.482 977.82 98.5114C978.34 97.5275 978.6 96.0251 978.6 94.0041C978.6 92.289 978.433 90.9594 978.1 90.0154L973.66 98.9302C974.14 99.6216 974.8 99.9673 975.64 99.9673Z" fill="url(#paint93_linear_175_198)"/>
</g>
<defs>
<filter id="filter0_f_175_198" x="-558.19" y="-713.19" width="2141.38" height="1500.38" filterUnits="userSpaceOnUse" color-interpolation-filters="sRGB">
<feFlood flood-opacity="0" result="BackgroundImageFix"/>
<feBlend mode="normal" in="SourceGraphic" in2="BackgroundImageFix" result="shape"/>
<feGaussianBlur stdDeviation="200.095" result="effect1_foregroundBlur_175_198"/>
</filter>
<linearGradient id="paint0_linear_175_198" x1="52.5" y1="273" x2="52.5" y2="584.381" gradientUnits="userSpaceOnUse">
<stop stop-color="#F7DD43"/>
<stop offset="1" stop-color="#F7DD43" stop-opacity="0"/>
</linearGradient>
<linearGradient id="paint1_linear_175_198" x1="52.5" y1="273" x2="52.5" y2="584.381" gradientUnits="userSpaceOnUse">
<stop stop-color="#F7DD43"/>
<stop offset="1" stop-color="#F7DD43" stop-opacity="0"/>
</linearGradient>
<linearGradient id="paint2_linear_175_198" x1="52.5" y1="273" x2="52.5" y2="584.381" gradientUnits="userSpaceOnUse">
<stop stop-color="#F7DD43"/>
<stop offset="1" stop-color="#F7DD43" stop-opacity="0"/>
</linearGradient>
<linearGradient id="paint3_linear_175_198" x1="52.5" y1="273" x2="52.5" y2="584.381" gradientUnits="userSpaceOnUse">
<stop stop-color="#F7DD43"/>
<stop offset="1" stop-color="#F7DD43" stop-opacity="0"/>
</linearGradient>
<linearGradient id="paint4_linear_175_198" x1="52.5" y1="273" x2="52.5" y2="584.381" gradientUnits="userSpaceOnUse">
<stop stop-color="#F7DD43"/>
<stop offset="1" stop-color="#F7DD43" stop-opacity="0"/>
</linearGradient>
<linearGradient id="paint5_linear_175_198" x1="52.5" y1="273" x2="52.5" y2="584.381" gradientUnits="userSpaceOnUse">
<stop stop-color="#F7DD43"/>
<stop offset="1" stop-color="#F7DD43" stop-opacity="0"/>
</linearGradient>
<linearGradient id="paint6_linear_175_198" x1="52.5" y1="273" x2="52.5" y2="584.381" gradientUnits="userSpaceOnUse">
<stop stop-color="#F7DD43"/>
<stop offset="1" stop-color="#F7DD43" stop-opacity="0"/>
</linearGradient>
<linearGradient id="paint7_linear_175_198" x1="52.5" y1="273" x2="52.5" y2="584.381" gradientUnits="userSpaceOnUse">
<stop stop-color="#F7DD43"/>
<stop offset="1" stop-color="#F7DD43" stop-opacity="0"/>
</linearGradient>
<linearGradient id="paint8_linear_175_198" x1="52.5" y1="273" x2="52.5" y2="584.381" gradientUnits="userSpaceOnUse">
<stop stop-color="#F7DD43"/>
<stop offset="1" stop-color="#F7DD43" stop-opacity="0"/>
</linearGradient>
<linearGradient id="paint9_linear_175_198" x1="52.5" y1="273" x2="52.5" y2="584.381" gradientUnits="userSpaceOnUse">
<stop stop-color="#F7DD43"/>
<stop offset="1" stop-color="#F7DD43" stop-opacity="0"/>
</linearGradient>
<linearGradient id="paint10_linear_175_198" x1="52.5" y1="273" x2="52.5" y2="584.381" gradientUnits="userSpaceOnUse">
<stop stop-color="#F7DD43"/>
<stop offset="1" stop-color="#F7DD43" stop-opacity="0"/>
</linearGradient>
<linearGradient id="paint11_linear_175_198" x1="52.5" y1="273" x2="52.5" y2="584.381" gradientUnits="userSpaceOnUse">
<stop stop-color="#F7DD43"/>
<stop offset="1" stop-color="#F7DD43" stop-opacity="0"/>
</linearGradient>
<linearGradient id="paint12_linear_175_198" x1="52.5" y1="273" x2="52.5" y2="584.381" gradientUnits="userSpaceOnUse">
<stop stop-color="#F7DD43"/>
<stop offset="1" stop-color="#F7DD43" stop-opacity="0"/>
</linearGradient>
<linearGradient id="paint13_linear_175_198" x1="52.5" y1="273" x2="52.5" y2="584.381" gradientUnits="userSpaceOnUse">
<stop stop-color="#F7DD43"/>
<stop offset="1" stop-color="#F7DD43" stop-opacity="0"/>
</linearGradient>
<linearGradient id="paint14_linear_175_198" x1="52.5" y1="273" x2="52.5" y2="584.381" gradientUnits="userSpaceOnUse">
<stop stop-color="#F7DD43"/>
<stop offset="1" stop-color="#F7DD43" stop-opacity="0"/>
</linearGradient>
<linearGradient id="paint15_linear_175_198" x1="52.5" y1="273" x2="52.5" y2="584.381" gradientUnits="userSpaceOnUse">
<stop stop-color="#F7DD43"/>
<stop offset="1" stop-color="#F7DD43" stop-opacity="0"/>
</linearGradient>
<linearGradient id="paint16_linear_175_198" x1="52.5" y1="273" x2="52.5" y2="584.381" gradientUnits="userSpaceOnUse">
<stop stop-color="#F7DD43"/>
<stop offset="1" stop-color="#F7DD43" stop-opacity="0"/>
</linearGradient>
<linearGradient id="paint17_linear_175_198" x1="52.5" y1="273" x2="52.5" y2="584.381" gradientUnits="userSpaceOnUse">
<stop stop-color="#F7DD43"/>
<stop offset="1" stop-color="#F7DD43" stop-opacity="0"/>
</linearGradient>
<linearGradient id="paint18_linear_175_198" x1="52.5" y1="273" x2="52.5" y2="584.381" gradientUnits="userSpaceOnUse">
<stop stop-color="#F7DD43"/>
<stop offset="1" stop-color="#F7DD43" stop-opacity="0"/>
</linearGradient>
<linearGradient id="paint19_linear_175_198" x1="52.5" y1="273" x2="52.5" y2="584.381" gradientUnits="userSpaceOnUse">
<stop stop-color="#F7DD43"/>
<stop offset="1" stop-color="#F7DD43" stop-opacity="0"/>
</linearGradient>
<linearGradient id="paint20_linear_175_198" x1="52.5" y1="273" x2="52.5" y2="584.381" gradientUnits="userSpaceOnUse">
<stop stop-color="#F7DD43"/>
<stop offset="1" stop-color="#F7DD43" stop-opacity="0"/>
</linearGradient>
<linearGradient id="paint21_linear_175_198" x1="52.5" y1="273" x2="52.5" y2="584.381" gradientUnits="userSpaceOnUse">
<stop stop-color="#F7DD43"/>
<stop offset="1" stop-color="#F7DD43" stop-opacity="0"/>
</linearGradient>
<linearGradient id="paint22_linear_175_198" x1="52.5" y1="273" x2="52.5" y2="584.381" gradientUnits="userSpaceOnUse">
<stop stop-color="#F7DD43"/>
<stop offset="1" stop-color="#F7DD43" stop-opacity="0"/>
</linearGradient>
<linearGradient id="paint23_linear_175_198" x1="52.5" y1="273" x2="52.5" y2="584.381" gradientUnits="userSpaceOnUse">
<stop stop-color="#F7DD43"/>
<stop offset="1" stop-color="#F7DD43" stop-opacity="0"/>
</linearGradient>
<linearGradient id="paint24_linear_175_198" x1="52.5" y1="273" x2="52.5" y2="584.381" gradientUnits="userSpaceOnUse">
<stop stop-color="#F7DD43"/>
<stop offset="1" stop-color="#F7DD43" stop-opacity="0"/>
</linearGradient>
<linearGradient id="paint25_linear_175_198" x1="52.5" y1="273" x2="52.5" y2="584.381" gradientUnits="userSpaceOnUse">
<stop stop-color="#F7DD43"/>
<stop offset="1" stop-color="#F7DD43" stop-opacity="0"/>
</linearGradient>
<linearGradient id="paint26_linear_175_198" x1="52.5" y1="273" x2="52.5" y2="584.381" gradientUnits="userSpaceOnUse">
<stop stop-color="#F7DD43"/>
<stop offset="1" stop-color="#F7DD43" stop-opacity="0"/>
</linearGradient>
<linearGradient id="paint27_linear_175_198" x1="52.5" y1="273" x2="52.5" y2="584.381" gradientUnits="userSpaceOnUse">
<stop stop-color="#F7DD43"/>
<stop offset="1" stop-color="#F7DD43" stop-opacity="0"/>
</linearGradient>
<linearGradient id="paint28_linear_175_198" x1="52.5" y1="273" x2="52.5" y2="584.381" gradientUnits="userSpaceOnUse">
<stop stop-color="#F7DD43"/>
<stop offset="1" stop-color="#F7DD43" stop-opacity="0"/>
</linearGradient>
<linearGradient id="paint29_linear_175_198" x1="52.5" y1="273" x2="52.5" y2="584.381" gradientUnits="userSpaceOnUse">
<stop stop-color="#F7DD43"/>
<stop offset="1" stop-color="#F7DD43" stop-opacity="0"/>
</linearGradient>
<linearGradient id="paint30_linear_175_198" x1="52.5" y1="273" x2="52.5" y2="584.381" gradientUnits="userSpaceOnUse">
<stop stop-color="#F7DD43"/>
<stop offset="1" stop-color="#F7DD43" stop-opacity="0"/>
</linearGradient>
<linearGradient id="paint31_linear_175_198" x1="52.5" y1="273" x2="52.5" y2="584.381" gradientUnits="userSpaceOnUse">
<stop stop-color="#F7DD43"/>
<stop offset="1" stop-color="#F7DD43" stop-opacity="0"/>
</linearGradient>
<linearGradient id="paint32_linear_175_198" x1="52.5" y1="273" x2="52.5" y2="584.381" gradientUnits="userSpaceOnUse">
<stop stop-color="#F7DD43"/>
<stop offset="1" stop-color="#F7DD43" stop-opacity="0"/>
</linearGradient>
<linearGradient id="paint33_linear_175_198" x1="52.5" y1="273" x2="52.5" y2="584.381" gradientUnits="userSpaceOnUse">
<stop stop-color="#F7DD43"/>
<stop offset="1" stop-color="#F7DD43" stop-opacity="0"/>
</linearGradient>
<linearGradient id="paint34_linear_175_198" x1="52.5" y1="273" x2="52.5" y2="584.381" gradientUnits="userSpaceOnUse">
<stop stop-color="#F7DD43"/>
<stop offset="1" stop-color="#F7DD43" stop-opacity="0"/>
</linearGradient>
<linearGradient id="paint35_linear_175_198" x1="52.5" y1="273" x2="52.5" y2="584.381" gradientUnits="userSpaceOnUse">
<stop stop-color="#F7DD43"/>
<stop offset="1" stop-color="#F7DD43" stop-opacity="0"/>
</linearGradient>
<linearGradient id="paint36_linear_175_198" x1="52.5" y1="273" x2="52.5" y2="584.381" gradientUnits="userSpaceOnUse">
<stop stop-color="#F7DD43"/>
<stop offset="1" stop-color="#F7DD43" stop-opacity="0"/>
</linearGradient>
<linearGradient id="paint37_linear_175_198" x1="52.5" y1="273" x2="52.5" y2="584.381" gradientUnits="userSpaceOnUse">
<stop stop-color="#F7DD43"/>
<stop offset="1" stop-color="#F7DD43" stop-opacity="0"/>
</linearGradient>
<linearGradient id="paint38_linear_175_198" x1="52.5" y1="273" x2="52.5" y2="584.381" gradientUnits="userSpaceOnUse">
<stop stop-color="#F7DD43"/>
<stop offset="1" stop-color="#F7DD43" stop-opacity="0"/>
</linearGradient>
<linearGradient id="paint39_linear_175_198" x1="52.5" y1="273" x2="52.5" y2="584.381" gradientUnits="userSpaceOnUse">
<stop stop-color="#F7DD43"/>
<stop offset="1" stop-color="#F7DD43" stop-opacity="0"/>
</linearGradient>
<linearGradient id="paint40_linear_175_198" x1="52.5" y1="273" x2="52.5" y2="584.381" gradientUnits="userSpaceOnUse">
<stop stop-color="#F7DD43"/>
<stop offset="1" stop-color="#F7DD43" stop-opacity="0"/>
</linearGradient>
<linearGradient id="paint41_linear_175_198" x1="52.5" y1="273" x2="52.5" y2="584.381" gradientUnits="userSpaceOnUse">
<stop stop-color="#F7DD43"/>
<stop offset="1" stop-color="#F7DD43" stop-opacity="0"/>
</linearGradient>
<linearGradient id="paint42_linear_175_198" x1="52.5" y1="273" x2="52.5" y2="584.381" gradientUnits="userSpaceOnUse">
<stop stop-color="#F7DD43"/>
<stop offset="1" stop-color="#F7DD43" stop-opacity="0"/>
</linearGradient>
<linearGradient id="paint43_linear_175_198" x1="52.5" y1="273" x2="52.5" y2="584.381" gradientUnits="userSpaceOnUse">
<stop stop-color="#F7DD43"/>
<stop offset="1" stop-color="#F7DD43" stop-opacity="0"/>
</linearGradient>
<linearGradient id="paint44_linear_175_198" x1="52.5" y1="273" x2="52.5" y2="584.381" gradientUnits="userSpaceOnUse">
<stop stop-color="#F7DD43"/>
<stop offset="1" stop-color="#F7DD43" stop-opacity="0"/>
</linearGradient>
<linearGradient id="paint45_linear_175_198" x1="52.5" y1="273" x2="52.5" y2="584.381" gradientUnits="userSpaceOnUse">
<stop stop-color="#F7DD43"/>
<stop offset="1" stop-color="#F7DD43" stop-opacity="0"/>
</linearGradient>
<linearGradient id="paint46_linear_175_198" x1="52.5" y1="273" x2="52.5" y2="584.381" gradientUnits="userSpaceOnUse">
<stop stop-color="#F7DD43"/>
<stop offset="1" stop-color="#F7DD43" stop-opacity="0"/>
</linearGradient>
<linearGradient id="paint47_linear_175_198" x1="938.5" y1="-27" x2="938.5" y2="271.818" gradientUnits="userSpaceOnUse">
<stop stop-color="#F7DD43"/>
<stop offset="1" stop-color="#F7DD43" stop-opacity="0"/>
</linearGradient>
<linearGradient id="paint48_linear_175_198" x1="938.5" y1="-27" x2="938.5" y2="271.818" gradientUnits="userSpaceOnUse">
<stop stop-color="#F7DD43"/>
<stop offset="1" stop-color="#F7DD43" stop-opacity="0"/>
</linearGradient>
<linearGradient id="paint49_linear_175_198" x1="938.5" y1="-27" x2="938.5" y2="271.818" gradientUnits="userSpaceOnUse">
<stop stop-color="#F7DD43"/>
<stop offset="1" stop-color="#F7DD43" stop-opacity="0"/>
</linearGradient>
<linearGradient id="paint50_linear_175_198" x1="938.5" y1="-27" x2="938.5" y2="271.818" gradientUnits="userSpaceOnUse">
<stop stop-color="#F7DD43"/>
<stop offset="1" stop-color="#F7DD43" stop-opacity="0"/>
</linearGradient>
<linearGradient id="paint51_linear_175_198" x1="938.5" y1="-27" x2="938.5" y2="271.818" gradientUnits="userSpaceOnUse">
<stop stop-color="#F7DD43"/>
<stop offset="1" stop-color="#F7DD43" stop-opacity="0"/>
</linearGradient>
<linearGradient id="paint52_linear_175_198" x1="938.5" y1="-27" x2="938.5" y2="271.818" gradientUnits="userSpaceOnUse">
<stop stop-color="#F7DD43"/>
<stop offset="1" stop-color="#F7DD43" stop-opacity="0"/>
</linearGradient>
<linearGradient id="paint53_linear_175_198" x1="938.5" y1="-27" x2="938.5" y2="271.818" gradientUnits="userSpaceOnUse">
<stop stop-color="#F7DD43"/>
<stop offset="1" stop-color="#F7DD43" stop-opacity="0"/>
</linearGradient>
<linearGradient id="paint54_linear_175_198" x1="938.5" y1="-27" x2="938.5" y2="271.818" gradientUnits="userSpaceOnUse">
<stop stop-color="#F7DD43"/>
<stop offset="1" stop-color="#F7DD43" stop-opacity="0"/>
</linearGradient>
<linearGradient id="paint55_linear_175_198" x1="938.5" y1="-27" x2="938.5" y2="271.818" gradientUnits="userSpaceOnUse">
<stop stop-color="#F7DD43"/>
<stop offset="1" stop-color="#F7DD43" stop-opacity="0"/>
</linearGradient>
<linearGradient id="paint56_linear_175_198" x1="938.5" y1="-27" x2="938.5" y2="271.818" gradientUnits="userSpaceOnUse">
<stop stop-color="#F7DD43"/>
<stop offset="1" stop-color="#F7DD43" stop-opacity="0"/>
</linearGradient>
<linearGradient id="paint57_linear_175_198" x1="938.5" y1="-27" x2="938.5" y2="271.818" gradientUnits="userSpaceOnUse">
<stop stop-color="#F7DD43"/>
<stop offset="1" stop-color="#F7DD43" stop-opacity="0"/>
</linearGradient>
<linearGradient id="paint58_linear_175_198" x1="938.5" y1="-27" x2="938.5" y2="271.818" gradientUnits="userSpaceOnUse">
<stop stop-color="#F7DD43"/>
<stop offset="1" stop-color="#F7DD43" stop-opacity="0"/>
</linearGradient>
<linearGradient id="paint59_linear_175_198" x1="938.5" y1="-27" x2="938.5" y2="271.818" gradientUnits="userSpaceOnUse">
<stop stop-color="#F7DD43"/>
<stop offset="1" stop-color="#F7DD43" stop-opacity="0"/>
</linearGradient>
<linearGradient id="paint60_linear_175_198" x1="938.5" y1="-27" x2="938.5" y2="271.818" gradientUnits="userSpaceOnUse">
<stop stop-color="#F7DD43"/>
<stop offset="1" stop-color="#F7DD43" stop-opacity="0"/>
</linearGradient>
<linearGradient id="paint61_linear_175_198" x1="938.5" y1="-27" x2="938.5" y2="271.818" gradientUnits="userSpaceOnUse">
<stop stop-color="#F7DD43"/>
<stop offset="1" stop-color="#F7DD43" stop-opacity="0"/>
</linearGradient>
<linearGradient id="paint62_linear_175_198" x1="938.5" y1="-27" x2="938.5" y2="271.818" gradientUnits="userSpaceOnUse">
<stop stop-color="#F7DD43"/>
<stop offset="1" stop-color="#F7DD43" stop-opacity="0"/>
</linearGradient>
<linearGradient id="paint63_linear_175_198" x1="938.5" y1="-27" x2="938.5" y2="271.818" gradientUnits="userSpaceOnUse">
<stop stop-color="#F7DD43"/>
<stop offset="1" stop-color="#F7DD43" stop-opacity="0"/>
</linearGradient>
<linearGradient id="paint64_linear_175_198" x1="938.5" y1="-27" x2="938.5" y2="271.818" gradientUnits="userSpaceOnUse">
<stop stop-color="#F7DD43"/>
<stop offset="1" stop-color="#F7DD43" stop-opacity="0"/>
</linearGradient>
<linearGradient id="paint65_linear_175_198" x1="938.5" y1="-27" x2="938.5" y2="271.818" gradientUnits="userSpaceOnUse">
<stop stop-color="#F7DD43"/>
<stop offset="1" stop-color="#F7DD43" stop-opacity="0"/>
</linearGradient>
<linearGradient id="paint66_linear_175_198" x1="938.5" y1="-27" x2="938.5" y2="271.818" gradientUnits="userSpaceOnUse">
<stop stop-color="#F7DD43"/>
<stop offset="1" stop-color="#F7DD43" stop-opacity="0"/>
</linearGradient>
<linearGradient id="paint67_linear_175_198" x1="938.5" y1="-27" x2="938.5" y2="271.818" gradientUnits="userSpaceOnUse">
<stop stop-color="#F7DD43"/>
<stop offset="1" stop-color="#F7DD43" stop-opacity="0"/>
</linearGradient>
<linearGradient id="paint68_linear_175_198" x1="938.5" y1="-27" x2="938.5" y2="271.818" gradientUnits="userSpaceOnUse">
<stop stop-color="#F7DD43"/>
<stop offset="1" stop-color="#F7DD43" stop-opacity="0"/>
</linearGradient>
<linearGradient id="paint69_linear_175_198" x1="938.5" y1="-27" x2="938.5" y2="271.818" gradientUnits="userSpaceOnUse">
<stop stop-color="#F7DD43"/>
<stop offset="1" stop-color="#F7DD43" stop-opacity="0"/>
</linearGradient>
<linearGradient id="paint70_linear_175_198" x1="938.5" y1="-27" x2="938.5" y2="271.818" gradientUnits="userSpaceOnUse">
<stop stop-color="#F7DD43"/>
<stop offset="1" stop-color="#F7DD43" stop-opacity="0"/>
</linearGradient>
<linearGradient id="paint71_linear_175_198" x1="938.5" y1="-27" x2="938.5" y2="271.818" gradientUnits="userSpaceOnUse">
<stop stop-color="#F7DD43"/>
<stop offset="1" stop-color="#F7DD43" stop-opacity="0"/>
</linearGradient>
<linearGradient id="paint72_linear_175_198" x1="938.5" y1="-27" x2="938.5" y2="271.818" gradientUnits="userSpaceOnUse">
<stop stop-color="#F7DD43"/>
<stop offset="1" stop-color="#F7DD43" stop-opacity="0"/>
</linearGradient>
<linearGradient id="paint73_linear_175_198" x1="938.5" y1="-27" x2="938.5" y2="271.818" gradientUnits="userSpaceOnUse">
<stop stop-color="#F7DD43"/>
<stop offset="1" stop-color="#F7DD43" stop-opacity="0"/>
</linearGradient>
<linearGradient id="paint74_linear_175_198" x1="938.5" y1="-27" x2="938.5" y2="271.818" gradientUnits="userSpaceOnUse">
<stop stop-color="#F7DD43"/>
<stop offset="1" stop-color="#F7DD43" stop-opacity="0"/>
</linearGradient>
<linearGradient id="paint75_linear_175_198" x1="938.5" y1="-27" x2="938.5" y2="271.818" gradientUnits="userSpaceOnUse">
<stop stop-color="#F7DD43"/>
<stop offset="1" stop-color="#F7DD43" stop-opacity="0"/>
</linearGradient>
<linearGradient id="paint76_linear_175_198" x1="938.5" y1="-27" x2="938.5" y2="271.818" gradientUnits="userSpaceOnUse">
<stop stop-color="#F7DD43"/>
<stop offset="1" stop-color="#F7DD43" stop-opacity="0"/>
</linearGradient>
<linearGradient id="paint77_linear_175_198" x1="938.5" y1="-27" x2="938.5" y2="271.818" gradientUnits="userSpaceOnUse">
<stop stop-color="#F7DD43"/>
<stop offset="1" stop-color="#F7DD43" stop-opacity="0"/>
</linearGradient>
<linearGradient id="paint78_linear_175_198" x1="938.5" y1="-27" x2="938.5" y2="271.818" gradientUnits="userSpaceOnUse">
<stop stop-color="#F7DD43"/>
<stop offset="1" stop-color="#F7DD43" stop-opacity="0"/>
</linearGradient>
<linearGradient id="paint79_linear_175_198" x1="938.5" y1="-27" x2="938.5" y2="271.818" gradientUnits="userSpaceOnUse">
<stop stop-color="#F7DD43"/>
<stop offset="1" stop-color="#F7DD43" stop-opacity="0"/>
</linearGradient>
<linearGradient id="paint80_linear_175_198" x1="938.5" y1="-27" x2="938.5" y2="271.818" gradientUnits="userSpaceOnUse">
<stop stop-color="#F7DD43"/>
<stop offset="1" stop-color="#F7DD43" stop-opacity="0"/>
</linearGradient>
<linearGradient id="paint81_linear_175_198" x1="938.5" y1="-27" x2="938.5" y2="271.818" gradientUnits="userSpaceOnUse">
<stop stop-color="#F7DD43"/>
<stop offset="1" stop-color="#F7DD43" stop-opacity="0"/>
</linearGradient>
<linearGradient id="paint82_linear_175_198" x1="938.5" y1="-27" x2="938.5" y2="271.818" gradientUnits="userSpaceOnUse">
<stop stop-color="#F7DD43"/>
<stop offset="1" stop-color="#F7DD43" stop-opacity="0"/>
</linearGradient>
<linearGradient id="paint83_linear_175_198" x1="938.5" y1="-27" x2="938.5" y2="271.818" gradientUnits="userSpaceOnUse">
<stop stop-color="#F7DD43"/>
<stop offset="1" stop-color="#F7DD43" stop-opacity="0"/>
</linearGradient>
<linearGradient id="paint84_linear_175_198" x1="938.5" y1="-27" x2="938.5" y2="271.818" gradientUnits="userSpaceOnUse">
<stop stop-color="#F7DD43"/>
<stop offset="1" stop-color="#F7DD43" stop-opacity="0"/>
</linearGradient>
<linearGradient id="paint85_linear_175_198" x1="938.5" y1="-27" x2="938.5" y2="271.818" gradientUnits="userSpaceOnUse">
<stop stop-color="#F7DD43"/>
<stop offset="1" stop-color="#F7DD43" stop-opacity="0"/>
</linearGradient>
<linearGradient id="paint86_linear_175_198" x1="938.5" y1="-27" x2="938.5" y2="271.818" gradientUnits="userSpaceOnUse">
<stop stop-color="#F7DD43"/>
<stop offset="1" stop-color="#F7DD43" stop-opacity="0"/>
</linearGradient>
<linearGradient id="paint87_linear_175_198" x1="938.5" y1="-27" x2="938.5" y2="271.818" gradientUnits="userSpaceOnUse">
<stop stop-color="#F7DD43"/>
<stop offset="1" stop-color="#F7DD43" stop-opacity="0"/>
</linearGradient>
<linearGradient id="paint88_linear_175_198" x1="938.5" y1="-27" x2="938.5" y2="271.818" gradientUnits="userSpaceOnUse">
<stop stop-color="#F7DD43"/>
<stop offset="1" stop-color="#F7DD43" stop-opacity="0"/>
</linearGradient>
<linearGradient id="paint89_linear_175_198" x1="938.5" y1="-27" x2="938.5" y2="271.818" gradientUnits="userSpaceOnUse">
<stop stop-color="#F7DD43"/>
<stop offset="1" stop-color="#F7DD43" stop-opacity="0"/>
</linearGradient>
<linearGradient id="paint90_linear_175_198" x1="938.5" y1="-27" x2="938.5" y2="271.818" gradientUnits="userSpaceOnUse">
<stop stop-color="#F7DD43"/>
<stop offset="1" stop-color="#F7DD43" stop-opacity="0"/>
</linearGradient>
<linearGradient id="paint91_linear_175_198" x1="938.5" y1="-27" x2="938.5" y2="271.818" gradientUnits="userSpaceOnUse">
<stop stop-color="#F7DD43"/>
<stop offset="1" stop-color="#F7DD43" stop-opacity="0"/>
</linearGradient>
<linearGradient id="paint92_linear_175_198" x1="938.5" y1="-27" x2="938.5" y2="271.818" gradientUnits="userSpaceOnUse">
<stop stop-color="#F7DD43"/>
<stop offset="1" stop-color="#F7DD43" stop-opacity="0"/>
</linearGradient>
<linearGradient id="paint93_linear_175_198" x1="938.5" y1="-27" x2="938.5" y2="271.818" gradientUnits="userSpaceOnUse">
<stop stop-color="#F7DD43"/>
<stop offset="1" stop-color="#F7DD43" stop-opacity="0"/>
</linearGradient>
</defs>
</svg>
